<svg width="24" height="24" viewBox="0 0 24 24" fill="none" xmlns="http://www.w3.org/2000/svg">
<g id="basic / tag">
<path id="basic / tag_2" d="M12.897 21.968C12.3663 21.9695 11.857 21.7585 11.483 21.382L3.646 13.547C3.23247 13.1348 3.02047 12.5621 3.066 11.98L3.566 5.414C3.63742 4.42568 4.42541 3.64067 5.414 3.573L11.98 3.073C12.032 3.062 12.083 3.062 12.135 3.062C12.6647 3.06136 13.1726 3.27233 13.546 3.648L21.383 11.482C21.7582 11.8571 21.9691 12.3659 21.9691 12.8965C21.9691 13.4271 21.7582 13.9359 21.383 14.311L14.311 21.382C13.9368 21.7583 13.4277 21.9693 12.897 21.968ZM8.654 6.654C7.74882 6.65426 6.95666 7.26244 6.72259 8.13683C6.48853 9.01122 6.87091 9.93381 7.65491 10.3862C8.43891 10.8387 9.42904 10.7082 10.069 10.068L10.076 10.062L10.083 10.055L10.075 10.062C10.6434 9.48856 10.8113 8.62956 10.5006 7.88431C10.1898 7.13906 9.46143 6.65376 8.654 6.654Z" fill="#C4CAD3"/>
</g>
</svg>
